<?xml version="1.0" standalone="no"?>
<!DOCTYPE svg PUBLIC "-//W3C//DTD SVG 20010904//EN"
 "http://www.w3.org/TR/2001/REC-SVG-20010904/DTD/svg10.dtd">
<svg version="1.0" xmlns="http://www.w3.org/2000/svg"
 width="140.000000pt" height="140.000000pt" viewBox="0 0 140.000000 140.000000"
 preserveAspectRatio="xMidYMid meet">
<metadata>
Created by potrace 1.14, written by Peter Selinger 2001-2017
</metadata>
<g transform="translate(0.000000,140.000000) scale(0.100000,-0.100000)"
fill="#000000" stroke="none">
<path d="M550 1381 c-200 -54 -366 -192 -449 -373 -16 -36 -27 -48 -44 -49
-21 0 -21 -1 -2 -9 l20 -9 -20 -1 c-11 -1 -14 -4 -7 -7 6 -2 12 -18 12 -34 0
-17 -4 -28 -10 -24 -5 3 -16 -8 -25 -25 -10 -20 -12 -29 -4 -28 8 2 12 -34 14
-127 2 -141 19 -214 75 -326 87 -171 263 -314 440 -355 56 -14 246 -16 299 -4
251 55 450 253 520 515 19 69 24 205 11 285 -7 41 -13 90 -14 108 0 17 -6 32
-11 32 -10 0 -39 63 -40 85 0 6 -7 16 -15 23 -13 12 -13 13 0 6 8 -5 -2 9 -23
29 -21 21 -35 42 -32 47 10 16 -6 39 -23 33 -12 -5 -14 -2 -9 11 4 10 3 15 -3
11 -6 -3 -36 16 -68 43 -53 46 -155 110 -184 116 -7 2 -25 8 -39 14 -77 31
-273 38 -369 13z"/>
</g>
</svg>
